<svg xmlns="http://www.w3.org/2000/svg" width="256" height="256" viewBox="0 0 256 256">
  <defs>
    <linearGradient id="bg" x1="0" y1="0" x2="1" y2="1">
      <stop offset="0" stop-color="#fce7f3"/>
      <stop offset="0.55" stop-color="#ddd6fe"/>
      <stop offset="1" stop-color="#bfdbfe"/>
    </linearGradient>
    <linearGradient id="hair" x1="0" y1="0" x2="0" y2="1">
      <stop offset="0" stop-color="#111827"/>
      <stop offset="1" stop-color="#1f2937"/>
    </linearGradient>
    <filter id="shadow" x="-20%" y="-20%" width="140%" height="140%">
      <feDropShadow dx="0" dy="10" stdDeviation="10" flood-color="#0f172a" flood-opacity="0.18"/>
    </filter>
  </defs>
  <circle cx="128" cy="128" r="118" fill="url(#bg)" filter="url(#shadow)"/>
  <path d="M60 118c8-44 44-70 68-70s60 26 68 70c-12-16-30-26-54-26-18 0-30 6-38 14-8-8-20-14-38-14-24 0-42 10-54 26z" fill="url(#hair)"/>
  <circle cx="128" cy="150" r="56" fill="#fde2e4" opacity="0.65"/>
  <circle cx="104" cy="142" r="10" fill="#111827"/>
  <circle cx="152" cy="142" r="10" fill="#111827"/>
  <circle cx="100" cy="156" r="12" fill="#fb7185" opacity="0.35"/>
  <circle cx="156" cy="156" r="12" fill="#fb7185" opacity="0.35"/>
  <path d="M116 168c10 8 14 8 24 0" fill="none" stroke="#111827" stroke-width="6" stroke-linecap="round"/>
  <path d="M78 92c18-18 34-26 50-26" fill="none" stroke="#fff" stroke-opacity="0.18" stroke-width="10" stroke-linecap="round"/>
  <path d="M168 84c8 6 14 14 18 24" fill="none" stroke="#fff" stroke-opacity="0.16" stroke-width="10" stroke-linecap="round"/>
</svg>
